<svg xmlns="http://www.w3.org/2000/svg" viewBox="0 0 64 64" id="voter-id">
  <path fill="#ecf0f1" d="M12.5 57.5v-51a2 2 0 0 1 2-2h35a2 2 0 0 1 2 2v51a2 2 0 0 1-2 2h-35a2 2 0 0 1-2-2z"></path>
  <path fill="#212e3a" d="M49.5 60h-35a2.502 2.502 0 0 1-2.5-2.5v-51C12 5.121 13.121 4 14.5 4h35C50.879 4 52 5.121 52 6.5v51c0 1.379-1.121 2.5-2.5 2.5zm-35-55c-.827 0-1.5.673-1.5 1.5v51c0 .827.673 1.5 1.5 1.5h35c.827 0 1.5-.673 1.5-1.5v-51c0-.827-.673-1.5-1.5-1.5h-35z"></path>
  <path fill="#2c3e50" d="M33.5 12.5v-2a1 1 0 0 0 0-2H33a1 1 0 0 0-2 0h-.5a1 1 0 0 0 0 2v2a1 1 0 0 0 0 2h3a1 1 0 0 0 0-2z"></path>
  <path fill="#3498db" d="M31.5 36.583v-11a2 2 0 0 1 2-2h11a2 2 0 0 1 2 2v11a2 2 0 0 1-2 2h-11a2 2 0 0 1-2-2z"></path>
  <circle cx="39.5" cy="27" r="1.5" fill="#f8b545"></circle>
  <path fill="#6daa31" d="M44.414 30.169a2 2 0 0 0-2.828 0l-7.778 7.778a1.977 1.977 0 0 0-.42.625c.038.002.074.011.112.011h11a2 2 0 0 0 2-2v-4.328l-2.086-2.086z"></path>
  <path fill="#6daa31" d="M34.586 30.169 31.5 33.255v3.328c0 1.066.836 1.929 1.888 1.989.097-.226.235-.44.42-.625l5.692-5.692-2.086-2.086a2 2 0 0 0-2.828 0z"></path>
  <path fill="#2c3e50" d="M15.5 25a1.5 1.5 0 0 1 1.5-1.5h6a1.5 1.5 0 0 1 0 3h-6a1.5 1.5 0 0 1-1.5-1.5zm0-6a1.5 1.5 0 0 1 1.5-1.5h30a1.5 1.5 0 0 1 0 3H17a1.5 1.5 0 0 1-1.5-1.5z"></path>
  <path fill="#212e3a" d="M49.5 60h-35a2.502 2.502 0 0 1-2.5-2.5v-51C12 5.121 13.121 4 14.5 4h35C50.879 4 52 5.121 52 6.5v51c0 1.379-1.121 2.5-2.5 2.5zm-35-55c-.827 0-1.5.673-1.5 1.5v51c0 .827.673 1.5 1.5 1.5h35c.827 0 1.5-.673 1.5-1.5v-51c0-.827-.673-1.5-1.5-1.5h-35z"></path>
  <path fill="#212e3a" d="M44.5 39.083h-11a2.502 2.502 0 0 1-2.5-2.5v-11c0-1.379 1.121-2.5 2.5-2.5h11c1.379 0 2.5 1.121 2.5 2.5v11c0 1.379-1.121 2.5-2.5 2.5zm-11-15c-.827 0-1.5.673-1.5 1.5v11c0 .827.673 1.5 1.5 1.5h11c.827 0 1.5-.673 1.5-1.5v-11c0-.827-.673-1.5-1.5-1.5h-11z"></path>
  <path fill="#212e3a" d="M44.5 39.083h-11c-.022 0-.107-.007-.129-.01a.55.55 0 0 1-.394-.252c-.077-.136-.111-.303-.049-.447.128-.297.305-.56.525-.78l7.778-7.778a2.502 2.502 0 0 1 3.535 0l2.086 2.086c.095.093.148.22.148.353v4.328c0 1.379-1.121 2.5-2.5 2.5zM43 30.084c-.384 0-.769.146-1.061.438l-7.562 7.562 10.123-.001c.827 0 1.5-.673 1.5-1.5v-4.121l-1.939-1.939A1.494 1.494 0 0 0 43 30.084z"></path>
  <path fill="#212e3a" d="m33.388 39.072-.028-.001A2.498 2.498 0 0 1 31 36.583v-3.328c0-.133.053-.26.146-.354l3.086-3.086a2.502 2.502 0 0 1 3.535 0l2.086 2.086a.5.5 0 0 1 0 .707L34.161 38.3a1.495 1.495 0 0 0-.314.47.5.5 0 0 1-.459.302zM32 33.462v3.121c0 .687.469 1.27 1.111 1.441a2.47 2.47 0 0 1 .343-.431l5.339-5.339-1.732-1.732a1.503 1.503 0 0 0-2.121 0L32 33.462zM23 27h-6c-1.103 0-2-.897-2-2s.897-2 2-2h6c1.103 0 2 .897 2 2s-.897 2-2 2zm-6-3a1 1 0 0 0 0 2h6a1 1 0 0 0 0-2h-6zm29.5 20h-18a.5.5 0 0 1 0-1h18a.5.5 0 0 1 0 1zm-24 0h-5a.5.5 0 0 1 0-1h5a.5.5 0 0 1 0 1zm17 3h-11a.5.5 0 0 1 0-1h11a.5.5 0 0 1 0 1zm7 3h-18a.5.5 0 0 1 0-1h18a.5.5 0 0 1 0 1zm-24 0h-5a.5.5 0 0 1 0-1h5a.5.5 0 0 1 0 1zm16 3h-10a.5.5 0 0 1 0-1h10a.5.5 0 0 1 0 1zm-16 0h-5a.5.5 0 0 1 0-1h5a.5.5 0 0 1 0 1zm16 3h-10a.5.5 0 0 1 0-1h10a.5.5 0 0 1 0 1zm-16 0h-5a.5.5 0 0 1 0-1h5a.5.5 0 0 1 0 1zm3-12c-.13 0-.26-.05-.351-.15a.346.346 0 0 1-.109-.16.408.408 0 0 1-.04-.19c0-.07.01-.13.04-.19.02-.06.06-.12.109-.16a.35.35 0 0 1 .16-.109c.181-.08.4-.03.54.109.05.04.09.101.11.16.031.06.041.12.041.19 0 .13-.05.26-.15.35-.04.05-.1.09-.16.11a.408.408 0 0 1-.19.04zm0 6c-.07 0-.13-.01-.19-.04a.372.372 0 0 1-.16-.11.346.346 0 0 1-.109-.16.397.397 0 0 1-.041-.19c0-.13.05-.26.149-.351a.35.35 0 0 1 .16-.109.5.5 0 0 1 .38 0c.061.02.12.06.16.109.05.04.09.101.11.16A.401.401 0 0 1 26 49.5c0 .069-.01.13-.04.189a.366.366 0 0 1-.11.16c-.04.05-.1.09-.16.11a.397.397 0 0 1-.19.041zm0 3c-.07 0-.13-.01-.19-.04a.372.372 0 0 1-.16-.11.346.346 0 0 1-.109-.16.397.397 0 0 1-.041-.19c0-.07.01-.13.04-.19.02-.06.06-.12.109-.16a.35.35 0 0 1 .16-.109c.181-.07.4-.03.54.109.05.04.09.101.11.16.031.06.041.12.041.19 0 .069-.01.13-.04.189a.366.366 0 0 1-.11.16.466.466 0 0 1-.35.151zm0 3c-.13 0-.26-.05-.351-.15a.346.346 0 0 1-.109-.16.433.433 0 0 1-.04-.19c0-.061.01-.13.04-.19.02-.06.06-.12.109-.16a.35.35 0 0 1 .16-.109c.12-.061.26-.05.38 0 .061.02.12.06.16.109.05.04.09.101.11.16.031.06.041.129.041.19 0 .069-.01.13-.04.189a.366.366 0 0 1-.11.16c-.04.05-.1.09-.16.11a.397.397 0 0 1-.19.041zM47 21H17c-1.103 0-2-.897-2-2s.897-2 2-2h30c1.103 0 2 .897 2 2s-.897 2-2 2zm-30-3a1 1 0 0 0 0 2h30a1 1 0 0 0 0-2H17zm16.5-3h-3c-.827 0-1.5-.673-1.5-1.5 0-.652.418-1.208 1-1.414v-1.172c-.582-.206-1-.762-1-1.414 0-.827.673-1.5 1.5-1.5h.086c.206-.582.762-1 1.414-1s1.208.418 1.414 1h.086c.827 0 1.5.673 1.5 1.5 0 .652-.418 1.208-1 1.414v1.172c.582.206 1 .762 1 1.414 0 .827-.673 1.5-1.5 1.5zm-3-6c-.275 0-.5.225-.5.5s.225.5.5.5a.5.5 0 0 1 .5.5v2a.5.5 0 0 1-.5.5c-.275 0-.5.225-.5.5s.225.5.5.5h3c.275 0 .5-.225.5-.5s-.225-.5-.5-.5a.5.5 0 0 1-.5-.5v-2a.5.5 0 0 1 .5-.5c.275 0 .5-.225.5-.5s-.225-.5-.5-.5H33a.5.5 0 0 1-.5-.5c0-.275-.225-.5-.5-.5s-.5.225-.5.5a.5.5 0 0 1-.5.5h-.5zm9 20c-1.103 0-2-.897-2-2s.897-2 2-2 2 .897 2 2-.897 2-2 2zm0-3a1 1 0 1 0 0 2 1 1 0 0 0 0-2z"></path>
</svg>